<svg version="1.1" id="Layer_1" xmlns="http://www.w3.org/2000/svg" x="0" y="0" viewBox="0 0 73.9 8.4" xml:space="preserve"><style>.st0{fill:#fff}.st1{fill:#faf39c}</style><g id="XMLID_131_"><path id="XMLID_132_" class="st0" d="M4.3 1.3v.5c0 .1 0 .1-.1.1H1.6v2H4s0 .1.1.2 0 .1 0 .2v.8c0 .1-.1 0-.1 0H1.6v3s-.1.1-.2.1H.2s-.1 0-.1-.1S0 8 0 8V1.1C0 .9 0 .8.1.7S.3.6.4.6h3.7l.1.1v.2c0 .1.1.3.1.4z"/><path id="XMLID_134_" class="st0" d="M9.6 8c0 .1 0 .1-.1.1s-.1.1-.2.1h-.8c-.1 0-.1 0-.2-.1s0-.1 0-.1v-.4c-.2.3-.4.4-.7.6s-.6.2-.9.2c-.3 0-.5 0-.8-.1s-.4-.2-.6-.4-.3-.3-.4-.5-.1-.5-.1-.7c0-.3.1-.6.2-.8s.3-.4.5-.6.5-.2.9-.3.8-.1 1.2-.1h.5v-.3-.4c0-.1-.1-.3-.2-.4s-.2-.1-.3-.2-.3 0-.5 0-.5 0-.7.1-.3.1-.4.1-.3.2-.4.2-.2.1-.3.1h-.1s0-.1-.1-.1 0-.1 0-.2v-.2-.3c0-.1.1-.2.1-.3s.2-.1.3-.2.3-.1.5-.1.4-.1.6-.1.4-.1.7-.1c.4 0 .8 0 1.1.1s.4.2.6.4.3.4.4.6.1.6.1.9V8zM8.1 5.8h-.5c-.2 0-.4 0-.6.1s-.4 0-.5.1-.1.2-.2.3-.1.2-.1.3c0 .2.1.4.2.5s.4.2.6.2c.2 0 .4-.1.6-.2s.4-.3.5-.5v-.8z"/><path id="XMLID_137_" class="st0" d="M16.3 5.3c0 .5-.1.9-.2 1.3s-.2.7-.4.9-.4.5-.7.6-.6.2-1 .2h-.5c-.2 0-.3-.1-.4-.2s-.3-.1-.4-.2l-.4-.4v.6l-.1.1h-1c-.1 0-.1 0-.1-.1V.3.2l.1-.1h1.2s.1 0 .1.1v3c.1-.1.3-.2.4-.3s.3-.2.4-.2.3-.1.4-.1h.4c.4 0 .7.1 1 .2s.5.4.7.6.3.6.4.9.1.7.1 1zm-1.5.1v-.6c0-.2-.1-.4-.2-.6s-.2-.2-.4-.3-.3-.1-.5-.1h-.3c-.1 0-.2.1-.3.1s-.1.2-.2.3-.2.2-.3.4v1.7c.2.3.4.5.6.6s.4.2.6.2c.2 0 .4 0 .5-.1s.2-.2.3-.4.2-.3.2-.5v-.7z"/><path id="XMLID_140_" class="st0" d="M20.8 3.3v.5s0 .1-.1.1h-.1-.1-.1H19.8s-.2.1-.3.2l-.3.3c-.1.1-.1.2-.2.4V8.1l-.1.1h-1.2s-.1 0-.1-.1V2.8v-.1l.1-.1h1c.1 0 .1 0 .1.1V3.5c.1-.2.2-.4.3-.5l.3-.3c.1-.1.2-.1.3-.2s.2 0 .3 0H20.6c.1 0 .1 0 .1.1V3c0 .1.1.1.1.3z"/><path id="XMLID_142_" class="st0" d="M23.3 1c0 .3-.1.5-.2.6s-.3.2-.7.2c-.3 0-.6-.1-.7-.2s-.2-.3-.2-.6.1-.5.2-.6.3-.2.7-.2c.3 0 .6.1.7.2s.2.3.2.6zm-.1 7v.1l-.1.1h-1.2s-.1 0-.1-.1V2.8v-.1l.1-.1h1.2s.1 0 .1.1V8z"/><path id="XMLID_145_" class="st0" d="M28.6 7.2v.6s0 .1-.1.1-.1 0-.3.1-.2.1-.3.2-.3.1-.5.1h-.5c-.4 0-.8-.1-1.1-.2s-.6-.2-.8-.5-.4-.5-.5-.9-.1-.7-.1-1.2.1-1 .2-1.4.3-.7.5-.9.5-.4.8-.6.7-.2 1.1-.2h.5c.2 0 .3.1.4.1s.2.1.4.2.2.1.2.2 0 .1.1.1 0 .1 0 .1v.4c0 .2 0 .4-.1.5s-.1.1-.2.1-.1 0-.2-.1-.1 0-.2-.1-.2-.1-.4-.2-.3-.1-.5-.1c-.4 0-.7.1-.9.4s-.3.7-.3 1.3c0 .3 0 .5.1.7s.1.4.2.5.2.3.4.3.3.1.5.1.4 0 .5-.1.3-.1.4-.2.2-.1.3-.2.1-.1.2-.1h.1s0 .1.1.1 0 .1 0 .2v.6z"/><path id="XMLID_147_" class="st0" d="M34.5 5.3c0 .2 0 .3-.1.4s-.2.1-.3.1h-3.2c0 .2 0 .4.1.6s.1.3.3.5.3.2.4.3.4.1.7.1c.3 0 .5 0 .7-.1s.4-.1.5-.1.3-.1.4-.1.2-.1.2-.1h.1l.1.1c.1.1 0 .1 0 .1V7.8s0 .1-.1.1-.2.1-.3.2-.3.1-.4.1-.4.1-.6.1h-.7c-.5 0-.9-.1-1.2-.2s-.6-.3-.9-.5-.4-.5-.5-.9-.3-.7-.3-1.2.1-.9.2-1.3.3-.7.5-.9.5-.5.8-.6.7-.2 1.1-.2c.4 0 .8.1 1.1.2s.7.3.9.5.3.5.4.8.1.7.1 1v.3zm-1.4-.5c0-.4-.1-.7-.2-1s-.5-.3-.9-.3c-.2 0-.4 0-.5.1s-.3.2-.3.3-.2.3-.2.4-.1.3-.1.5h2.2z"/><path id="XMLID_150_" class="st1" d="M43.7 2.9c0 .4-.1.8-.2 1.1s-.3.7-.5.9-.6.4-1 .5-.8.2-1.3.2h-.6v2.5s-.1.1-.2.1h-1.2s-.1 0-.1-.1V1.2c0-.2 0-.3.1-.4s.2-.1.4-.1h2.3c.1 0 .4 0 .6.1s.5.1.7.2.4.3.6.5.3.4.4.7 0 .4 0 .7zm-1.6.2c0-.3 0-.5-.1-.7s-.2-.3-.4-.4-.3-.1-.4-.2-.3 0-.5 0H40v2.6h.7c.2 0 .5 0 .6-.1s.3-.2.4-.3.2-.3.2-.4.2-.3.2-.5z"/><path id="XMLID_153_" class="st1" d="M49.1 8c0 .1 0 .1-.1.1s-.1.1-.2.1H48c-.1 0-.1 0-.2-.1s0-.1 0-.1v-.4c-.2.2-.5.4-.7.5s-.6.2-.9.2c-.3 0-.5 0-.8-.1s-.4-.1-.6-.3-.3-.3-.4-.5-.1-.5-.1-.7c0-.3.1-.6.2-.8s.3-.4.5-.6.5-.3.9-.3.8-.1 1.2-.1h.5v-.3-.4c0-.1-.1-.2-.2-.3s-.2-.1-.3-.2-.3-.1-.5-.1-.5 0-.7.1-.4.1-.5.2-.2.1-.3.1-.2.1-.2.1h-.1l-.1-.1v-.2-.2-.3c0-.1.1-.1.1-.2s.2-.1.3-.2.3-.1.5-.2.4-.1.6-.1.4-.1.7-.1c.4 0 .8 0 1.1.1s.5.2.7.4.3.4.4.6.1.6.1.9V8zm-1.5-2.2H47c-.2 0-.4 0-.6.1s-.3 0-.4.1-.2.2-.2.3-.1.2-.1.3c0 .2.1.4.2.5s.3.2.6.2c.2 0 .4-.1.6-.2s.4-.3.5-.5v-.8z"/><path id="XMLID_156_" class="st1" d="M52 8v.1l-.1.1h-1.2s-.1 0-.1-.1V.3.2l.1-.1h1.2s.1 0 .1.1V8z"/><path id="XMLID_158_" class="st1" d="M55 8v.1l-.1.1h-1.2s-.1 0-.1-.1V.3.2l.1-.1h1.2s.1 0 .1.1V8z"/><path id="XMLID_160_" class="st1" d="M60.9 8c0 .1 0 .1-.1.1s-.1.1-.2.1h-.8c-.1 0-.1 0-.2-.1s0-.1 0-.1v-.4c-.2.2-.5.4-.7.5s-.5.3-.9.3c-.3 0-.5 0-.8-.1s-.4-.2-.6-.3-.3-.3-.4-.5-.1-.5-.1-.7c0-.3.1-.6.2-.8s.3-.4.5-.6.5-.3.9-.3.8-.1 1.2-.1h.5v-.4-.4c0-.1-.1-.2-.2-.3s-.2-.1-.3-.2-.3-.1-.5-.1-.5 0-.7.1-.4.1-.5.2-.2.1-.3.1-.2.1-.2.1h-.1l-.1-.1v-.2-.2-.3c0-.1.1-.1.1-.2s.2-.1.3-.2.3-.1.5-.2.4-.1.6-.1.4-.1.7-.1c.4 0 .8 0 1.1.1s.5.2.7.4.3.4.4.6.1.6.1.9V8zm-1.5-2.2h-.6c-.2 0-.4 0-.6.1s-.2 0-.3.1-.2.2-.2.3-.1.2-.1.3c0 .2.1.4.2.5s.3.2.6.2c.2 0 .4-.1.6-.2s.4-.3.5-.5v-.8z"/><path id="XMLID_163_" class="st1" d="M67.3 8v.1l-.1.1h-1c-.1 0-.1 0-.1-.1v-.7c-.3.3-.6.5-.9.7s-.6.2-.9.2c-.4 0-.7-.1-.9-.2s-.4-.3-.6-.5-.3-.3-.4-.6-.1-.6-.1-1V2.8v-.1l.1-.1h1.2s.1 0 .1.1v3.1c0 .3 0 .5.1.6s.1.3.2.4.2.2.3.2.2.1.4.1.4-.1.6-.2.4-.3.6-.6V2.8v-.1l.1-.1h1.2s.1 0 .1.1V8z"/><path id="XMLID_165_" class="st1" d="M73.8 8v.1l-.1.1h-1c-.1 0-.1 0-.1-.1v-.7c-.4.3-.6.6-.9.7s-.6.2-1 .2-.7-.1-1-.2-.5-.3-.7-.6-.3-.6-.4-.9-.1-.7-.1-1.1c0-.5 0-.9.1-1.3s.2-.7.4-.9.4-.5.7-.6.6-.2 1-.2c.3 0 .6.1.8.2s.5.3.7.5V.3.2l.1-.1h1.2s.1 0 .1.1V8zm-1.5-3.5c-.2-.3-.4-.5-.6-.6s-.4-.2-.6-.2c-.2 0-.4 0-.5.1s-.3.2-.3.4-.1.3-.2.5-.1.5-.1.7c0 .2 0 .4.1.6s.1.4.2.6.2.3.3.4.3.1.5.1h.3c.1 0 .2-.1.3-.1s.2-.2.3-.3.2-.2.3-.4V4.5z"/></g></svg>