<svg version="1.1" id="Layer_1" xmlns="http://www.w3.org/2000/svg" x="0" y="0" viewBox="0 0 10.9 8.4" xml:space="preserve"><style>.st0{fill:#ff4b68}</style><g id="XMLID_1_"><path id="XMLID_42_" class="st0" d="M4.3 1.3v.5c0 .1 0 .1-.1.1H1.6v2h2.5v1.2c0 .1 0 .1-.1.1H1.6v2.9l-.1.1H.3s-.1 0-.1-.1v-7C.2.9.2.8.3.7S.5.6.6.6h3.7l.1.1v.2c0 .1-.1.3-.1.4z"/><path id="XMLID_44_" class="st0" d="M10.8 2.9c0 .4-.1.8-.2 1.1s-.3.7-.6.9-.6.4-.9.5-.8.2-1.3.2h-.7v2.5l-.1.1H5.8s-.1 0-.1-.1V1.2c0-.2 0-.3.1-.4s.2-.2.3-.2h2.3c.1 0 .4 0 .6.1s.5.2.7.3.4.3.6.5.3.4.4.7.1.4.1.7zm-1.6.2c0-.3 0-.5-.1-.7s-.3-.3-.4-.4-.3-.1-.4-.1H7.1v2.6h.7c.2 0 .5 0 .6-.1s.4-.3.5-.4.1-.2.2-.4.1-.3.1-.5z"/></g></svg>